<score-partwise>
<part-list>
 <score-part id="P1">
</score-part>
</part-list>
<part id="P1">
<measure number="1">
<attributes>
<clef>
<sign>G</sign>
<line>2</line>
</clef>
<key>
<fifths>-1</fifths>
</key>
<time>
<beats>4</beats>
<beat-type>4</beat-type>
</time>
</attributes>
<note>
<rest/>
<duration>4</duration>
<voice>1</voice>
<type>half</type>
</note>
<note>
<rest/>
<duration>2</duration>
<voice>1</voice>
<type>quarter</type>
</note>
<note>
<pitch>
<step>F</step>
<octave>5</octave>
</pitch>
<duration>1</duration>
<voice>1</voice>
<type>eighth</type>
<stem>down</stem>
<beam>begin</beam>
</note>
<note>
<pitch>
<step>G</step>
<octave>5</octave>
</pitch>
<duration>1</duration>
<voice>1</voice>
<type>eighth</type>
<stem>down</stem>
<beam>continue</beam>
</note>
</measure>
<measure number="2">
<note>
<pitch>
<step>G</step>
<octave>5</octave>
</pitch>
<duration>1</duration>
<voice>1</voice>
<type>eighth</type>
<stem>down</stem>
<beam>end</beam>
</note>
<note>
<pitch>
<step>A</step>
<octave>5</octave>
</pitch>
<duration>2</duration>
<voice>1</voice>
<type>quarter</type>
<stem>down</stem>
</note>
<note>
<pitch>
<step>A</step>
<octave>5</octave>
</pitch>
<duration>1</duration>
<voice>1</voice>
<type>eighth</type>
<stem>down</stem>
<beam>begin</beam>
</note>
<note>
<pitch>
<step>A</step>
<octave>5</octave>
</pitch>
<duration>2</duration>
<voice>1</voice>
<type>quarter</type>
<stem>down</stem>
</note>
<note>
<pitch>
<step>G</step>
<octave>5</octave>
</pitch>
<duration>1</duration>
<voice>1</voice>
<type>eighth</type>
<stem>down</stem>
<beam>begin</beam>
</note>
<note>
<pitch>
<step>F</step>
<octave>5</octave>
</pitch>
<duration>1</duration>
<voice>1</voice>
<type>eighth</type>
<stem>down</stem>
<beam>continue</beam>
</note>
</measure>
<measure number="3">
<note>
<pitch>
<step>G</step>
<octave>5</octave>
</pitch>
<duration>1</duration>
<voice>1</voice>
<type>eighth</type>
<stem>down</stem>
<beam>end</beam>
</note>
<note>
<pitch>
<step>C</step>
<octave>6</octave>
</pitch>
<duration>2</duration>
<voice>1</voice>
<type>quarter</type>
<stem>down</stem>
</note>
<note>
<pitch>
<step>C</step>
<octave>6</octave>
</pitch>
<duration>1</duration>
<voice>1</voice>
<type>eighth</type>
<stem>down</stem>
<beam>begin</beam>
</note>
<note>
<pitch>
<step>C</step>
<octave>6</octave>
</pitch>
<duration>2</duration>
<voice>1</voice>
<type>quarter</type>
<stem>down</stem>
</note>
<note>
<pitch>
<step>B</step>
<octave>5</octave>
</pitch>
<duration>1</duration>
<voice>1</voice>
<type>eighth</type>
<stem>down</stem>
<beam>begin</beam>
</note>
<note>
<pitch>
<step>A</step>
<octave>5</octave>
</pitch>
<duration>1</duration>
<voice>1</voice>
<type>eighth</type>
<stem>down</stem>
<beam>end</beam>
</note>
</measure>
<measure number="4">
<note>
<pitch>
<step>F</step>
<octave>5</octave>
</pitch>
<duration>2</duration>
<voice>1</voice>
<type>quarter</type>
<stem>down</stem>
</note>
<note>
<pitch>
<step>D</step>
<octave>5</octave>
</pitch>
<duration>4</duration>
<voice>1</voice>
<type>half</type>
<stem>down</stem>
</note>
<note>
<pitch>
<step>D</step>
<octave>5</octave>
</pitch>
<duration>2</duration>
<voice>1</voice>
<type>quarter</type>
<stem>down</stem>
</note>
</measure>
<measure number="5">
<note>
<pitch>
<step>C</step>
<octave>5</octave>
</pitch>
<duration>4</duration>
<voice>1</voice>
<type>half</type>
<stem>down</stem>
</note>
<note>
<pitch>
<step>C</step>
<octave>5</octave>
</pitch>
<duration>2</duration>
<voice>1</voice>
<type>quarter</type>
<stem>down</stem>
</note>
<note>
<pitch>
<step>F</step>
<octave>5</octave>
</pitch>
<duration>1</duration>
<voice>1</voice>
<type>eighth</type>
<stem>down</stem>
<beam>begin</beam>
</note>
<note>
<pitch>
<step>G</step>
<octave>5</octave>
</pitch>
<duration>1</duration>
<voice>1</voice>
<type>eighth</type>
<stem>down</stem>
<beam>continue</beam>
</note>
</measure>
<measure number="6">
<note>
<pitch>
<step>G</step>
<octave>5</octave>
</pitch>
<duration>1</duration>
<voice>1</voice>
<type>eighth</type>
<stem>down</stem>
<beam>end</beam>
</note>
<note>
<pitch>
<step>A</step>
<octave>5</octave>
</pitch>
<duration>2</duration>
<voice>1</voice>
<type>quarter</type>
<stem>down</stem>
</note>
<note>
<pitch>
<step>A</step>
<octave>5</octave>
</pitch>
<duration>1</duration>
<voice>1</voice>
<type>eighth</type>
<stem>down</stem>
<beam>begin</beam>
</note>
<note>
<pitch>
<step>A</step>
<octave>5</octave>
</pitch>
<duration>2</duration>
<voice>1</voice>
<type>quarter</type>
<stem>down</stem>
</note>
<note>
<pitch>
<step>B</step>
<octave>5</octave>
</pitch>
<duration>8</duration>
<voice>1</voice>
<type>whole</type>
<stem>down</stem>
</note>
<note>
<pitch>
<step>A</step>
<octave>5</octave>
</pitch>
<duration>8</duration>
<voice>1</voice>
<type>whole</type>
<stem>down</stem>
</note>
<note>
<pitch>
<step>G</step>
<octave>5</octave>
</pitch>
<duration>8</duration>
<voice>1</voice>
<type>whole</type>
<stem>down</stem>
</note>
<note>
<pitch>
<step>F</step>
<octave>5</octave>
</pitch>
<duration>8</duration>
<voice>1</voice>
<type>whole</type>
<stem>down</stem>
</note>
</measure>
<measure number="7">
<note>
<pitch>
<step>G</step>
<octave>5</octave>
</pitch>
<duration>1</duration>
<voice>1</voice>
<type>eighth</type>
<stem>down</stem>
<beam>begin</beam>
</note>
<note>
<pitch>
<step>C</step>
<octave>6</octave>
</pitch>
<duration>2</duration>
<voice>1</voice>
<type>quarter</type>
<stem>down</stem>
</note>
<note>
<pitch>
<step>C</step>
<octave>6</octave>
</pitch>
<duration>1</duration>
<voice>1</voice>
<type>eighth</type>
<stem>down</stem>
<beam>begin</beam>
</note>
<note>
<pitch>
<step>C</step>
<octave>6</octave>
</pitch>
<duration>2</duration>
<voice>1</voice>
<type>quarter</type>
<stem>down</stem>
</note>
<note>
<pitch>
<step>A</step>
<octave>5</octave>
</pitch>
<duration>1</duration>
<voice>1</voice>
<type>eighth</type>
<stem>down</stem>
<beam>begin</beam>
</note>
<note>
<pitch>
<step>C</step>
<octave>6</octave>
</pitch>
<duration>1</duration>
<voice>1</voice>
<type>eighth</type>
<stem>down</stem>
<beam>end</beam>
</note>
</measure>
<measure number="8">
<note>
<pitch>
<step>D</step>
<octave>6</octave>
</pitch>
<duration>4</duration>
<voice>1</voice>
<type>half</type>
<stem>down</stem>
</note>
<note>
<pitch>
<step>C</step>
<octave>6</octave>
</pitch>
<duration>4</duration>
<voice>1</voice>
<type>half</type>
<stem>down</stem>
</note>
</measure>
<measure number="9">
<note>
<pitch>
<step>G</step>
<octave>5</octave>
</pitch>
<duration>8</duration>
<voice>1</voice>
<type>whole</type>
<stem>down</stem>
</note>
<note>
<pitch>
<step>A</step>
<octave>5</octave>
</pitch>
<duration>8</duration>
<voice>1</voice>
<type>whole</type>
<stem>down</stem>
</note>
<note>
<pitch>
<step>G</step>
<octave>5</octave>
</pitch>
<duration>2</duration>
<voice>1</voice>
<type>quarter</type>
<stem>down</stem>
</note>
<note>
<pitch>
<step>G</step>
<octave>5</octave>
</pitch>
<duration>1</duration>
<voice>1</voice>
<type>eighth</type>
<stem>down</stem>
<beam>begin</beam>
</note>
<note>
<pitch>
<step>G</step>
<octave>5</octave>
</pitch>
<duration>4</duration>
<voice>1</voice>
<type>half</type>
<stem>down</stem>
</note>
</measure>
<measure number="10">
<note>
<pitch>
<step>F</step>
<octave>5</octave>
</pitch>
<duration>4</duration>
<voice>1</voice>
<type>half</type>
<stem>down</stem>
</note>
<note>
<pitch>
<step>G</step>
<octave>5</octave>
</pitch>
<duration>2</duration>
<voice>1</voice>
<type>quarter</type>
<stem>down</stem>
</note>
<note>
<pitch>
<step>C</step>
<octave>5</octave>
</pitch>
<duration>2</duration>
<voice>1</voice>
<type>quarter</type>
<stem>down</stem>
</note>
</measure>
<measure number="11">
<note>
<pitch>
<step>C</step>
<octave>5</octave>
</pitch>
<duration>2</duration>
<voice>1</voice>
<type>quarter</type>
<stem>down</stem>
</note>
<note>
<pitch>
<step>C</step>
<octave>5</octave>
</pitch>
<duration>1</duration>
<voice>1</voice>
<type>eighth</type>
<stem>down</stem>
<beam>begin</beam>
</note>
<note>
<pitch>
<step>F</step>
<octave>5</octave>
</pitch>
<duration>1</duration>
<voice>1</voice>
<type>eighth</type>
<stem>down</stem>
<beam>continue</beam>
</note>
<note>
<pitch>
<step>E</step>
<octave>5</octave>
</pitch>
<duration>1</duration>
<voice>1</voice>
<type>eighth</type>
<stem>down</stem>
<beam>continue</beam>
</note>
<note>
<pitch>
<step>C</step>
<octave>5</octave>
</pitch>
<duration>1</duration>
<voice>1</voice>
<type>eighth</type>
<stem>down</stem>
<beam>continue</beam>
</note>
<note>
<pitch>
<step>G</step>
<octave>4</octave>
</pitch>
<duration>1</duration>
<voice>1</voice>
<type>eighth</type>
<stem>up</stem>
<beam>continue</beam>
</note>
<note>
<pitch>
<step>C</step>
<octave>5</octave>
</pitch>
<duration>1</duration>
<voice>1</voice>
<type>eighth</type>
<stem>down</stem>
<beam>continue</beam>
</note>
</measure>
<measure number="12">
<note>
<pitch>
<step>C</step>
<octave>5</octave>
</pitch>
<duration>1</duration>
<voice>1</voice>
<type>eighth</type>
<stem>down</stem>
<beam>continue</beam>
</note>
<note>
<pitch>
<step>B</step>
<octave>4</octave>
</pitch>
<duration>1</duration>
<voice>1</voice>
<type>eighth</type>
<stem>up</stem>
<beam>continue</beam>
</note>
<note>
<pitch>
<step>C</step>
<octave>5</octave>
</pitch>
<duration>1</duration>
<voice>1</voice>
<type>eighth</type>
<stem>down</stem>
<beam>continue</beam>
</note>
<note>
<pitch>
<step>F</step>
<octave>5</octave>
</pitch>
<duration>1</duration>
<voice>1</voice>
<type>eighth</type>
<stem>down</stem>
<beam>end</beam>
</note>
<note>
<pitch>
<step>B</step>
<octave>4</octave>
</pitch>
<duration>2</duration>
<voice>1</voice>
<type>quarter</type>
<stem>up</stem>
</note>
<note>
<pitch>
<step>C</step>
<octave>5</octave>
</pitch>
<duration>2</duration>
<voice>1</voice>
<type>quarter</type>
<stem>down</stem>
</note>
</measure>
<measure number="13">
<note>
<rest/>
<duration>0</duration>
<voice>1</voice>
<type>eight</type>
</note>
<note>
<pitch>
<step>A</step>
<octave>4</octave>
</pitch>
<duration>1</duration>
<voice>1</voice>
<type>eighth</type>
<stem>up</stem>
<beam>begin</beam>
</note>
<note>
<pitch>
<step>C</step>
<octave>5</octave>
</pitch>
<duration>1</duration>
<voice>1</voice>
<type>eighth</type>
<stem>down</stem>
<beam>continue</beam>
</note>
<note>
<pitch>
<step>F</step>
<octave>5</octave>
</pitch>
<duration>1</duration>
<voice>1</voice>
<type>eighth</type>
<stem>down</stem>
<beam>end</beam>
</note>
<note>
<pitch>
<step>E</step>
<octave>5</octave>
</pitch>
<duration>4</duration>
<voice>1</voice>
<type>half</type>
<stem>down</stem>
</note>
</measure>
<measure number="14">
<note>
<pitch>
<step>F</step>
<octave>5</octave>
</pitch>
<duration>1</duration>
<voice>1</voice>
<type>eighth</type>
<stem>down</stem>
<beam>begin</beam>
</note>
<note>
<pitch>
<step>A</step>
<octave>4</octave>
</pitch>
<duration>1</duration>
<voice>1</voice>
<type>eighth</type>
<stem>up</stem>
<beam>continue</beam>
</note>
<note>
<pitch>
<step>C</step>
<octave>5</octave>
</pitch>
<duration>1</duration>
<voice>1</voice>
<type>eighth</type>
<stem>down</stem>
<beam>continue</beam>
</note>
<note>
<pitch>
<step>F</step>
<octave>5</octave>
</pitch>
<duration>1</duration>
<voice>1</voice>
<type>eighth</type>
<stem>down</stem>
<beam>end</beam>
</note>
<note>
<pitch>
<step>C</step>
<octave>5</octave>
</pitch>
<duration>4</duration>
<voice>1</voice>
<type>half</type>
<stem>down</stem>
</note>
</measure>
<measure number="15">
<note>
<pitch>
<step>F</step>
<octave>5</octave>
</pitch>
<duration>1</duration>
<voice>1</voice>
<type>eighth</type>
<stem>down</stem>
<beam>begin</beam>
</note>
<note>
<pitch>
<step>A</step>
<octave>4</octave>
</pitch>
<duration>1</duration>
<voice>1</voice>
<type>eighth</type>
<stem>up</stem>
<beam>continue</beam>
</note>
<note>
<pitch>
<step>C</step>
<octave>5</octave>
</pitch>
<duration>1</duration>
<voice>1</voice>
<type>eighth</type>
<stem>down</stem>
<beam>continue</beam>
</note>
<note>
<pitch>
<step>F</step>
<octave>5</octave>
</pitch>
<duration>1</duration>
<voice>1</voice>
<type>eighth</type>
<stem>down</stem>
<beam>end</beam>
</note>
<note>
<pitch>
<step>F</step>
<octave>5</octave>
</pitch>
<duration>2</duration>
<voice>1</voice>
<type>quarter</type>
<stem>down</stem>
</note>
<note>
<pitch>
<step>E</step>
<octave>5</octave>
</pitch>
<duration>2</duration>
<voice>1</voice>
<type>quarter</type>
<stem>down</stem>
</note>
</measure>
<measure number="16">
<note>
<pitch>
<step>F</step>
<octave>5</octave>
</pitch>
<duration>1</duration>
<voice>1</voice>
<type>eighth</type>
<stem>down</stem>
<beam>begin</beam>
</note>
<note>
<pitch>
<step>B</step>
<octave>4</octave>
</pitch>
<duration>1</duration>
<voice>1</voice>
<type>eighth</type>
<stem>up</stem>
<beam>continue</beam>
</note>
<note>
<pitch>
<step>D</step>
<octave>5</octave>
</pitch>
<duration>1</duration>
<voice>1</voice>
<type>eighth</type>
<stem>down</stem>
<beam>continue</beam>
</note>
<note>
<pitch>
<step>F</step>
<octave>5</octave>
</pitch>
<duration>1</duration>
<voice>1</voice>
<type>eighth</type>
<stem>down</stem>
<beam>continue</beam>
</note>
<note>
<pitch>
<step>F</step>
<octave>5</octave>
</pitch>
<duration>1</duration>
<voice>1</voice>
<type>eighth</type>
<stem>down</stem>
<beam>end</beam>
</note>
<note>
<pitch>
<step>B</step>
<octave>4</octave>
</pitch>
<duration>2</duration>
<voice>1</voice>
<type>quarter</type>
<stem>up</stem>
</note>
<note>
<pitch>
<step>D</step>
<octave>5</octave>
</pitch>
<duration>1</duration>
<voice>1</voice>
<type>eighth</type>
<stem>down</stem>
<beam>begin</beam>
</note>
</measure>
<measure number="17">
<note>
<pitch>
<step>B</step>
<octave>4</octave>
</pitch>
<duration>1</duration>
<voice>1</voice>
<type>eighth</type>
<stem>up</stem>
<beam>continue</beam>
</note>
<note>
<pitch>
<step>C</step>
<octave>5</octave>
</pitch>
<duration>1</duration>
<voice>1</voice>
<type>eighth</type>
<stem>down</stem>
<beam>continue</beam>
</note>
<note>
<pitch>
<step>D</step>
<octave>5</octave>
</pitch>
<duration>1</duration>
<voice>1</voice>
<type>eighth</type>
<stem>down</stem>
<beam>continue</beam>
</note>
<note>
<pitch>
<step>F</step>
<octave>5</octave>
</pitch>
<duration>1</duration>
<voice>1</voice>
<type>eighth</type>
<stem>down</stem>
<beam>continue</beam>
</note>
<note>
<pitch>
<step>B</step>
<octave>5</octave>
</pitch>
<duration>1</duration>
<voice>1</voice>
<type>eighth</type>
<stem>down</stem>
<beam>continue</beam>
</note>
<note>
<pitch>
<step>C</step>
<octave>6</octave>
</pitch>
<duration>1</duration>
<voice>1</voice>
<type>eighth</type>
<stem>down</stem>
<beam>continue</beam>
</note>
<note>
<pitch>
<step>D</step>
<octave>6</octave>
</pitch>
<duration>1</duration>
<voice>1</voice>
<type>eighth</type>
<stem>down</stem>
<beam>continue</beam>
</note>
<note>
<pitch>
<step>E</step>
<octave>6</octave>
</pitch>
<duration>1</duration>
<voice>1</voice>
<type>eighth</type>
<stem>down</stem>
<beam>end</beam>
</note>
</measure>
<measure number="18">
<note>
<pitch>
<step>F</step>
<octave>5</octave>
</pitch>
<duration>4</duration>
<voice>1</voice>
<type>half</type>
<stem>down</stem>
</note>
<note>
<pitch>
<step>F</step>
<octave>5</octave>
</pitch>
<duration>2</duration>
<voice>1</voice>
<type>quarter</type>
<stem>down</stem>
</note>
<note>
<pitch>
<step>C</step>
<octave>5</octave>
</pitch>
<duration>2</duration>
<voice>1</voice>
<type>quarter</type>
<stem>down</stem>
</note>
</measure>
<measure number="19">
<note>
<pitch>
<step>C</step>
<octave>5</octave>
</pitch>
<duration>2</duration>
<voice>1</voice>
<type>quarter</type>
<stem>down</stem>
</note>
<note>
<rest/>
<duration>0</duration>
<voice>1</voice>
<type>eight</type>
</note>
<note>
<pitch>
<step>F</step>
<octave>5</octave>
</pitch>
<duration>1</duration>
<voice>1</voice>
<type>eighth</type>
<stem>down</stem>
<beam>begin</beam>
</note>
<note>
<pitch>
<step>E</step>
<octave>5</octave>
</pitch>
<duration>1</duration>
<voice>1</voice>
<type>eighth</type>
<stem>down</stem>
<beam>continue</beam>
</note>
<note>
<pitch>
<step>C</step>
<octave>5</octave>
</pitch>
<duration>1</duration>
<voice>1</voice>
<type>eighth</type>
<stem>down</stem>
<beam>continue</beam>
</note>
<note>
<pitch>
<step>G</step>
<octave>4</octave>
</pitch>
<duration>1</duration>
<voice>1</voice>
<type>eighth</type>
<stem>up</stem>
<beam>continue</beam>
</note>
<note>
<pitch>
<step>C</step>
<octave>5</octave>
</pitch>
<duration>1</duration>
<voice>1</voice>
<type>eighth</type>
<stem>down</stem>
<beam>continue</beam>
</note>
</measure>
<measure number="20">
<note>
<pitch>
<step>C</step>
<octave>5</octave>
</pitch>
<duration>1</duration>
<voice>1</voice>
<type>eighth</type>
<stem>down</stem>
<beam>continue</beam>
</note>
<note>
<pitch>
<step>B</step>
<octave>4</octave>
</pitch>
<duration>1</duration>
<voice>1</voice>
<type>eighth</type>
<stem>up</stem>
<beam>continue</beam>
</note>
<note>
<pitch>
<step>C</step>
<octave>5</octave>
</pitch>
<duration>1</duration>
<voice>1</voice>
<type>eighth</type>
<stem>down</stem>
<beam>continue</beam>
</note>
<note>
<pitch>
<step>F</step>
<octave>5</octave>
</pitch>
<duration>1</duration>
<voice>1</voice>
<type>eighth</type>
<stem>down</stem>
<beam>end</beam>
</note>
<note>
<pitch>
<step>B</step>
<octave>4</octave>
</pitch>
<duration>2</duration>
<voice>1</voice>
<type>quarter</type>
<stem>up</stem>
</note>
<note>
<pitch>
<step>C</step>
<octave>5</octave>
</pitch>
<duration>2</duration>
<voice>1</voice>
<type>quarter</type>
<stem>down</stem>
</note>
</measure>
<measure number="21">
<note>
<rest/>
<duration>0</duration>
<voice>1</voice>
<type>eight</type>
</note>
<note>
<pitch>
<step>A</step>
<octave>4</octave>
</pitch>
<duration>1</duration>
<voice>1</voice>
<type>eighth</type>
<stem>up</stem>
<beam>begin</beam>
</note>
<note>
<pitch>
<step>C</step>
<octave>5</octave>
</pitch>
<duration>1</duration>
<voice>1</voice>
<type>eighth</type>
<stem>down</stem>
<beam>continue</beam>
</note>
<note>
<pitch>
<step>F</step>
<octave>5</octave>
</pitch>
<duration>1</duration>
<voice>1</voice>
<type>eighth</type>
<stem>down</stem>
<beam>end</beam>
</note>
<note>
<pitch>
<step>E</step>
<octave>5</octave>
</pitch>
<duration>4</duration>
<voice>1</voice>
<type>half</type>
<stem>down</stem>
</note>
</measure>
<measure number="22">
<note>
<pitch>
<step>F</step>
<octave>5</octave>
</pitch>
<duration>1</duration>
<voice>1</voice>
<type>eighth</type>
<stem>down</stem>
<beam>begin</beam>
</note>
<note>
<pitch>
<step>A</step>
<octave>4</octave>
</pitch>
<duration>1</duration>
<voice>1</voice>
<type>eighth</type>
<stem>up</stem>
<beam>continue</beam>
</note>
<note>
<pitch>
<step>C</step>
<octave>5</octave>
</pitch>
<duration>1</duration>
<voice>1</voice>
<type>eighth</type>
<stem>down</stem>
<beam>continue</beam>
</note>
<note>
<pitch>
<step>F</step>
<octave>5</octave>
</pitch>
<duration>1</duration>
<voice>1</voice>
<type>eighth</type>
<stem>down</stem>
<beam>end</beam>
</note>
<note>
<pitch>
<step>C</step>
<octave>5</octave>
</pitch>
<duration>4</duration>
<voice>1</voice>
<type>half</type>
<stem>down</stem>
</note>
</measure>
<measure number="23">
<note>
<pitch>
<step>F</step>
<octave>5</octave>
</pitch>
<duration>1</duration>
<voice>1</voice>
<type>eighth</type>
<stem>down</stem>
<beam>begin</beam>
</note>
<note>
<pitch>
<step>A</step>
<octave>4</octave>
</pitch>
<duration>1</duration>
<voice>1</voice>
<type>eighth</type>
<stem>up</stem>
<beam>continue</beam>
</note>
<note>
<pitch>
<step>C</step>
<octave>5</octave>
</pitch>
<duration>1</duration>
<voice>1</voice>
<type>eighth</type>
<stem>down</stem>
<beam>continue</beam>
</note>
<note>
<pitch>
<step>F</step>
<octave>5</octave>
</pitch>
<duration>1</duration>
<voice>1</voice>
<type>eighth</type>
<stem>down</stem>
<beam>end</beam>
</note>
<note>
<pitch>
<step>F</step>
<octave>5</octave>
</pitch>
<duration>2</duration>
<voice>1</voice>
<type>quarter</type>
<stem>down</stem>
</note>
<note>
<pitch>
<step>E</step>
<octave>5</octave>
</pitch>
<duration>2</duration>
<voice>1</voice>
<type>quarter</type>
<stem>down</stem>
</note>
</measure>
<measure number="24">
<note>
<pitch>
<step>F</step>
<octave>5</octave>
</pitch>
<duration>1</duration>
<voice>1</voice>
<type>eighth</type>
<stem>down</stem>
<beam>begin</beam>
</note>
<note>
<pitch>
<step>B</step>
<octave>4</octave>
</pitch>
<duration>1</duration>
<voice>1</voice>
<type>eighth</type>
<stem>up</stem>
<beam>continue</beam>
</note>
<note>
<pitch>
<step>C</step>
<octave>5</octave>
</pitch>
<duration>1</duration>
<voice>1</voice>
<type>eighth</type>
<stem>down</stem>
<beam>continue</beam>
</note>
<note>
<pitch>
<step>F</step>
<octave>5</octave>
</pitch>
<duration>1</duration>
<voice>1</voice>
<type>eighth</type>
<stem>down</stem>
<beam>continue</beam>
</note>
<note>
<pitch>
<step>F</step>
<octave>5</octave>
</pitch>
<duration>1</duration>
<voice>1</voice>
<type>eighth</type>
<stem>down</stem>
<beam>end</beam>
</note>
<note>
<pitch>
<step>B</step>
<octave>4</octave>
</pitch>
<duration>2</duration>
<voice>1</voice>
<type>quarter</type>
<stem>up</stem>
</note>
<note>
<pitch>
<step>B</step>
<octave>4</octave>
</pitch>
<duration>1</duration>
<voice>1</voice>
<type>eighth</type>
<stem>up</stem>
<beam>begin</beam>
</note>
</measure>
<measure number="25">
<note>
<rest/>
<duration>8</duration>
<voice>1</voice>
<type>whole</type>
</note>
</measure>
<measure number="26">
<note>
<pitch>
<step>F</step>
<octave>5</octave>
</pitch>
<duration>8</duration>
<voice>1</voice>
<type>whole</type>
<stem>down</stem>
</note>
</measure>
<measure number="27">
<note>
<pitch>
<step>G</step>
<octave>5</octave>
</pitch>
<duration>4</duration>
<voice>1</voice>
<type>half</type>
<stem>down</stem>
</note>
<note>
<pitch>
<step>G</step>
<octave>5</octave>
</pitch>
<duration>2</duration>
<voice>1</voice>
<type>quarter</type>
<stem>down</stem>
</note>
<note>
<pitch>
<step>C</step>
<octave>5</octave>
</pitch>
<duration>2</duration>
<voice>1</voice>
<type>quarter</type>
<stem>down</stem>
</note>
</measure>
<measure number="28">
<note>
<pitch>
<step>C</step>
<octave>6</octave>
</pitch>
<duration>4</duration>
<voice>1</voice>
<type>half</type>
<stem>down</stem>
</note>
<note>
<pitch>
<step>B</step>
<octave>5</octave>
</pitch>
<duration>2</duration>
<voice>1</voice>
<type>quarter</type>
<stem>down</stem>
</note>
<note>
<pitch>
<step>A</step>
<octave>5</octave>
</pitch>
<duration>2</duration>
<voice>1</voice>
<type>quarter</type>
<stem>down</stem>
</note>
</measure>
<measure number="29">
<note>
<pitch>
<step>G</step>
<octave>5</octave>
</pitch>
<duration>4</duration>
<voice>1</voice>
<type>half</type>
<stem>down</stem>
</note>
<note>
<pitch>
<step>A</step>
<octave>5</octave>
</pitch>
<duration>2</duration>
<voice>1</voice>
<type>quarter</type>
<stem>down</stem>
</note>
<note>
<pitch>
<step>B</step>
<octave>5</octave>
</pitch>
<duration>2</duration>
<voice>1</voice>
<type>quarter</type>
<stem>down</stem>
</note>
</measure>
<measure number="30">
<note>
<pitch>
<step>A</step>
<octave>5</octave>
</pitch>
<duration>4</duration>
<voice>1</voice>
<type>half</type>
<stem>down</stem>
</note>
<note>
<pitch>
<step>G</step>
<octave>5</octave>
</pitch>
<duration>2</duration>
<voice>1</voice>
<type>quarter</type>
<stem>down</stem>
</note>
<note>
<pitch>
<step>F</step>
<octave>5</octave>
</pitch>
<duration>2</duration>
<voice>1</voice>
<type>quarter</type>
<stem>down</stem>
</note>
</measure>
<measure number="31">
<note>
<pitch>
<step>E</step>
<octave>5</octave>
</pitch>
<duration>2</duration>
<voice>1</voice>
<type>quarter</type>
<stem>down</stem>
</note>
<note>
<pitch>
<step>F</step>
<octave>5</octave>
</pitch>
<duration>4</duration>
<voice>1</voice>
<type>half</type>
<stem>down</stem>
</note>
<note>
<pitch>
<step>E</step>
<octave>5</octave>
</pitch>
<duration>2</duration>
<voice>1</voice>
<type>quarter</type>
<stem>down</stem>
</note>
</measure>
<measure number="32">
<note>
<pitch>
<step>D</step>
<octave>5</octave>
</pitch>
<duration>8</duration>
<voice>1</voice>
<type>whole</type>
<stem>down</stem>
</note>
</measure>
<measure number="33">
<note>
<rest/>
<duration>0</duration>
<voice>1</voice>
<type>eight</type>
</note>
<note>
<rest/>
<duration>0</duration>
<voice>1</voice>
<type>eight</type>
</note>
<note>
<pitch>
<step>G</step>
<octave>4</octave>
</pitch>
<duration>1</duration>
<voice>1</voice>
<type>eighth</type>
<stem>up</stem>
<beam>begin</beam>
</note>
<note>
<pitch>
<step>A</step>
<octave>4</octave>
</pitch>
<duration>1</duration>
<voice>1</voice>
<type>eighth</type>
<stem>up</stem>
<beam>continue</beam>
</note>
<note>
<pitch>
<step>B</step>
<octave>4</octave>
</pitch>
<duration>1</duration>
<voice>1</voice>
<type>eighth</type>
<stem>up</stem>
<beam>continue</beam>
</note>
<note>
<pitch>
<step>C</step>
<octave>5</octave>
</pitch>
<duration>1</duration>
<voice>1</voice>
<type>eighth</type>
<stem>down</stem>
<beam>continue</beam>
</note>
<note>
<pitch>
<step>D</step>
<octave>5</octave>
</pitch>
<duration>1</duration>
<voice>1</voice>
<type>eighth</type>
<stem>down</stem>
<beam>continue</beam>
</note>
<note>
<pitch>
<step>E</step>
<octave>5</octave>
</pitch>
<duration>1</duration>
<voice>1</voice>
<type>eighth</type>
<stem>down</stem>
<beam>end</beam>
</note>
</measure>
<measure number="34">
<note>
<pitch>
<step>F</step>
<octave>5</octave>
</pitch>
<duration>8</duration>
<voice>1</voice>
<type>whole</type>
<stem>down</stem>
</note>
</measure>
<measure number="35">
<note>
<pitch>
<step>G</step>
<octave>5</octave>
</pitch>
<duration>4</duration>
<voice>1</voice>
<type>half</type>
<stem>down</stem>
</note>
<note>
<pitch>
<step>G</step>
<octave>5</octave>
</pitch>
<duration>2</duration>
<voice>1</voice>
<type>quarter</type>
<stem>down</stem>
</note>
<note>
<pitch>
<step>C</step>
<octave>5</octave>
</pitch>
<duration>2</duration>
<voice>1</voice>
<type>quarter</type>
<stem>down</stem>
</note>
</measure>
<measure number="36">
<note>
<pitch>
<step>C</step>
<octave>6</octave>
</pitch>
<duration>4</duration>
<voice>1</voice>
<type>half</type>
<stem>down</stem>
</note>
<note>
<pitch>
<step>B</step>
<octave>5</octave>
</pitch>
<duration>2</duration>
<voice>1</voice>
<type>quarter</type>
<stem>down</stem>
</note>
<note>
<pitch>
<step>A</step>
<octave>5</octave>
</pitch>
<duration>2</duration>
<voice>1</voice>
<type>quarter</type>
<stem>down</stem>
</note>
</measure>
<measure number="37">
<note>
<pitch>
<step>G</step>
<octave>5</octave>
</pitch>
<duration>4</duration>
<voice>1</voice>
<type>half</type>
<stem>down</stem>
</note>
<note>
<pitch>
<step>A</step>
<octave>5</octave>
</pitch>
<duration>2</duration>
<voice>1</voice>
<type>quarter</type>
<stem>down</stem>
</note>
<note>
<pitch>
<step>B</step>
<octave>5</octave>
</pitch>
<duration>2</duration>
<voice>1</voice>
<type>quarter</type>
<stem>down</stem>
</note>
</measure>
<measure number="38">
<note>
<pitch>
<step>A</step>
<octave>5</octave>
</pitch>
<duration>4</duration>
<voice>1</voice>
<type>half</type>
<stem>down</stem>
</note>
<note>
<pitch>
<step>G</step>
<octave>5</octave>
</pitch>
<duration>2</duration>
<voice>1</voice>
<type>quarter</type>
<stem>down</stem>
</note>
<note>
<pitch>
<step>F</step>
<octave>5</octave>
</pitch>
<duration>2</duration>
<voice>1</voice>
<type>quarter</type>
<stem>down</stem>
</note>
</measure>
<measure number="39">
<note>
<pitch>
<step>E</step>
<octave>5</octave>
</pitch>
<duration>2</duration>
<voice>1</voice>
<type>quarter</type>
<stem>down</stem>
</note>
<note>
<pitch>
<step>F</step>
<octave>5</octave>
</pitch>
<duration>4</duration>
<voice>1</voice>
<type>half</type>
<stem>down</stem>
</note>
<note>
<pitch>
<step>E</step>
<octave>5</octave>
</pitch>
<duration>2</duration>
<voice>1</voice>
<type>quarter</type>
<stem>down</stem>
</note>
</measure>
<measure number="40">
<note>
<pitch>
<step>E</step>
<octave>5</octave>
</pitch>
<duration>2</duration>
<voice>1</voice>
<type>quarter</type>
<stem>down</stem>
</note>
<note>
<pitch>
<step>F</step>
<octave>5</octave>
</pitch>
<duration>4</duration>
<voice>1</voice>
<type>half</type>
<stem>down</stem>
</note>
<note>
<pitch>
<step>G</step>
<octave>5</octave>
</pitch>
<duration>2</duration>
<voice>1</voice>
<type>quarter</type>
<stem>down</stem>
</note>
</measure>
<measure number="41">
<note>
<pitch>
<step>A</step>
<octave>5</octave>
</pitch>
<duration>4</duration>
<voice>1</voice>
<type>half</type>
<stem>down</stem>
</note>
<note>
<pitch>
<step>G</step>
<octave>5</octave>
</pitch>
<duration>4</duration>
<voice>1</voice>
<type>half</type>
<stem>down</stem>
</note>
</measure>
<measure number="42">
<note>
<pitch>
<step>F</step>
<octave>5</octave>
</pitch>
<duration>4</duration>
<voice>1</voice>
<type>half</type>
<stem>down</stem>
</note>
<note>
<rest/>
<duration>2</duration>
<voice>1</voice>
<type>quarter</type>
</note>
<note>
<pitch>
<step>F</step>
<octave>5</octave>
</pitch>
<duration>1</duration>
<voice>1</voice>
<type>eighth</type>
<stem>down</stem>
<beam>begin</beam>
</note>
<note>
<pitch>
<step>G</step>
<octave>5</octave>
</pitch>
<duration>1</duration>
<voice>1</voice>
<type>eighth</type>
<stem>down</stem>
<beam>continue</beam>
</note>
</measure>
<measure number="43">
<note>
<pitch>
<step>G</step>
<octave>5</octave>
</pitch>
<duration>1</duration>
<voice>1</voice>
<type>eighth</type>
<stem>down</stem>
<beam>end</beam>
</note>
<note>
<pitch>
<step>A</step>
<octave>5</octave>
</pitch>
<duration>2</duration>
<voice>1</voice>
<type>quarter</type>
<stem>down</stem>
</note>
<note>
<pitch>
<step>A</step>
<octave>5</octave>
</pitch>
<duration>1</duration>
<voice>1</voice>
<type>eighth</type>
<stem>down</stem>
<beam>begin</beam>
</note>
<note>
<pitch>
<step>A</step>
<octave>5</octave>
</pitch>
<duration>2</duration>
<voice>1</voice>
<type>quarter</type>
<stem>down</stem>
</note>
<note>
<pitch>
<step>G</step>
<octave>5</octave>
</pitch>
<duration>1</duration>
<voice>1</voice>
<type>eighth</type>
<stem>down</stem>
<beam>begin</beam>
</note>
<note>
<pitch>
<step>F</step>
<octave>5</octave>
</pitch>
<duration>1</duration>
<voice>1</voice>
<type>eighth</type>
<stem>down</stem>
<beam>continue</beam>
</note>
</measure>
<measure number="44">
<note>
<pitch>
<step>G</step>
<octave>5</octave>
</pitch>
<duration>1</duration>
<voice>1</voice>
<type>eighth</type>
<stem>down</stem>
<beam>end</beam>
</note>
<note>
<pitch>
<step>C</step>
<octave>6</octave>
</pitch>
<duration>2</duration>
<voice>1</voice>
<type>quarter</type>
<stem>down</stem>
</note>
<note>
<pitch>
<step>C</step>
<octave>6</octave>
</pitch>
<duration>1</duration>
<voice>1</voice>
<type>eighth</type>
<stem>down</stem>
<beam>begin</beam>
</note>
<note>
<pitch>
<step>C</step>
<octave>6</octave>
</pitch>
<duration>2</duration>
<voice>1</voice>
<type>quarter</type>
<stem>down</stem>
</note>
<note>
<pitch>
<step>B</step>
<octave>5</octave>
</pitch>
<duration>1</duration>
<voice>1</voice>
<type>eighth</type>
<stem>down</stem>
<beam>begin</beam>
</note>
<note>
<pitch>
<step>A</step>
<octave>5</octave>
</pitch>
<duration>1</duration>
<voice>1</voice>
<type>eighth</type>
<stem>down</stem>
<beam>end</beam>
</note>
</measure>
<measure number="45">
<note>
<pitch>
<step>F</step>
<octave>5</octave>
</pitch>
<duration>2</duration>
<voice>1</voice>
<type>quarter</type>
<stem>down</stem>
</note>
<note>
<pitch>
<step>D</step>
<octave>5</octave>
</pitch>
<duration>4</duration>
<voice>1</voice>
<type>half</type>
<stem>down</stem>
</note>
<note>
<pitch>
<step>D</step>
<octave>5</octave>
</pitch>
<duration>2</duration>
<voice>1</voice>
<type>quarter</type>
<stem>down</stem>
</note>
</measure>
<measure number="46">
<note>
<pitch>
<step>C</step>
<octave>5</octave>
</pitch>
<duration>4</duration>
<voice>1</voice>
<type>half</type>
<stem>down</stem>
</note>
<note>
<pitch>
<step>C</step>
<octave>5</octave>
</pitch>
<duration>2</duration>
<voice>1</voice>
<type>quarter</type>
<stem>down</stem>
</note>
<note>
<pitch>
<step>F</step>
<octave>5</octave>
</pitch>
<duration>1</duration>
<voice>1</voice>
<type>eighth</type>
<stem>down</stem>
<beam>begin</beam>
</note>
<note>
<pitch>
<step>G</step>
<octave>5</octave>
</pitch>
<duration>1</duration>
<voice>1</voice>
<type>eighth</type>
<stem>down</stem>
<beam>continue</beam>
</note>
</measure>
<measure number="47">
<note>
<pitch>
<step>G</step>
<octave>5</octave>
</pitch>
<duration>1</duration>
<voice>1</voice>
<type>eighth</type>
<stem>down</stem>
<beam>end</beam>
</note>
<note>
<pitch>
<step>A</step>
<octave>5</octave>
</pitch>
<duration>2</duration>
<voice>1</voice>
<type>quarter</type>
<stem>down</stem>
</note>
<note>
<pitch>
<step>A</step>
<octave>5</octave>
</pitch>
<duration>1</duration>
<voice>1</voice>
<type>eighth</type>
<stem>down</stem>
<beam>begin</beam>
</note>
<note>
<pitch>
<step>A</step>
<octave>5</octave>
</pitch>
<duration>2</duration>
<voice>1</voice>
<type>quarter</type>
<stem>down</stem>
</note>
<note>
<pitch>
<step>B</step>
<octave>5</octave>
</pitch>
<duration>8</duration>
<voice>1</voice>
<type>whole</type>
<stem>down</stem>
</note>
<note>
<pitch>
<step>A</step>
<octave>5</octave>
</pitch>
<duration>8</duration>
<voice>1</voice>
<type>whole</type>
<stem>down</stem>
</note>
<note>
<pitch>
<step>G</step>
<octave>5</octave>
</pitch>
<duration>8</duration>
<voice>1</voice>
<type>whole</type>
<stem>down</stem>
</note>
<note>
<pitch>
<step>F</step>
<octave>5</octave>
</pitch>
<duration>8</duration>
<voice>1</voice>
<type>whole</type>
<stem>down</stem>
</note>
</measure>
<measure number="48">
<note>
<pitch>
<step>G</step>
<octave>5</octave>
</pitch>
<duration>1</duration>
<voice>1</voice>
<type>eighth</type>
<stem>down</stem>
<beam>begin</beam>
</note>
<note>
<pitch>
<step>C</step>
<octave>6</octave>
</pitch>
<duration>2</duration>
<voice>1</voice>
<type>quarter</type>
<stem>down</stem>
</note>
<note>
<pitch>
<step>C</step>
<octave>6</octave>
</pitch>
<duration>1</duration>
<voice>1</voice>
<type>eighth</type>
<stem>down</stem>
<beam>begin</beam>
</note>
<note>
<pitch>
<step>C</step>
<octave>6</octave>
</pitch>
<duration>2</duration>
<voice>1</voice>
<type>quarter</type>
<stem>down</stem>
</note>
<note>
<pitch>
<step>A</step>
<octave>5</octave>
</pitch>
<duration>1</duration>
<voice>1</voice>
<type>eighth</type>
<stem>down</stem>
<beam>begin</beam>
</note>
<note>
<pitch>
<step>C</step>
<octave>6</octave>
</pitch>
<duration>1</duration>
<voice>1</voice>
<type>eighth</type>
<stem>down</stem>
<beam>end</beam>
</note>
</measure>
<measure number="49">
<note>
<pitch>
<step>D</step>
<octave>6</octave>
</pitch>
<duration>4</duration>
<voice>1</voice>
<type>half</type>
<stem>down</stem>
</note>
<note>
<pitch>
<step>C</step>
<octave>6</octave>
</pitch>
<duration>4</duration>
<voice>1</voice>
<type>half</type>
<stem>down</stem>
</note>
</measure>
<measure number="50">
<note>
<pitch>
<step>G</step>
<octave>5</octave>
</pitch>
<duration>8</duration>
<voice>1</voice>
<type>whole</type>
<stem>down</stem>
</note>
<note>
<pitch>
<step>A</step>
<octave>5</octave>
</pitch>
<duration>8</duration>
<voice>1</voice>
<type>whole</type>
<stem>down</stem>
</note>
<note>
<pitch>
<step>G</step>
<octave>5</octave>
</pitch>
<duration>2</duration>
<voice>1</voice>
<type>quarter</type>
<stem>down</stem>
</note>
<note>
<pitch>
<step>G</step>
<octave>5</octave>
</pitch>
<duration>1</duration>
<voice>1</voice>
<type>eighth</type>
<stem>down</stem>
<beam>begin</beam>
</note>
<note>
<pitch>
<step>G</step>
<octave>5</octave>
</pitch>
<duration>4</duration>
<voice>1</voice>
<type>half</type>
<stem>down</stem>
</note>
<barline location = "right" > <bar-style> light-heavy </bar-style> </barline>
</measure>
</part>
</score-partwise>
